<?xml version="1.0" encoding="utf-8"?>
<svg version="1.1" id="Layer_1"
xmlns="http://www.w3.org/2000/svg"
xmlns:xlink="http://www.w3.org/1999/xlink"
width="681px" height="481px"
xml:space="preserve">
<g id="PathID_1" transform="matrix(1, 0, 0, 1, 204.15, 239.8)" opacity="1">
<linearGradient
id="LinearGradID_1" gradientUnits="userSpaceOnUse" gradientTransform="matrix(0.109471, -0.109471, 0.109471, 0.109471, 0, 0)" spreadMethod ="pad" x1="-819.2" y1="0" x2="819.2" y2="0" >
<stop  offset="0" style="stop-color:#000000;stop-opacity:1" />
<stop  offset="0.247059" style="stop-color:#000000;stop-opacity:1" />
<stop  offset="0.733333" style="stop-color:#FFFFFF;stop-opacity:1" />
<stop  offset="1" style="stop-color:#FFFFFF;stop-opacity:1" />
</linearGradient>
<path style="fill:url(#LinearGradID_1) " d="M-126.8 -126.8L126.85 -126.8L126.85 126.85L-126.8 126.85L-126.8 -126.8" />
</g>
<g id="PathID_2" transform="matrix(1, 0, 0, 1, 204.15, 239.8)" opacity="1">
</g>
<g id="PathID_3" transform="matrix(1, 0, 0, 1, 154.45, 241.45)" opacity="1">
</g>
<g id="PathID_4" transform="matrix(1, 0, 0, 1, 154.45, 241.45)" opacity="1">
<path style="fill:none;stroke-width:13;stroke-linecap:round;stroke-linejoin:round;stroke-miterlimit:3;stroke:#FFFFFF;stroke-opacity:1" d="M0 -57.9L0 57.9" />
</g>
<g id="PathID_5" transform="matrix(1, 0, 0, 1, 256.55, 244.15)" opacity="1">
</g>
<g id="PathID_6" transform="matrix(1, 0, 0, 1, 256.55, 244.15)" opacity="1">
<path style="fill:none;stroke-width:13;stroke-linecap:round;stroke-linejoin:round;stroke-miterlimit:3;stroke:#000000;stroke-opacity:1" d="M0 -57.9L0 57.9" />
</g>
<g id="PathID_7" transform="matrix(1, 0, 0, 1, 205.1, 241.45)" opacity="1">
</g>
<g id="PathID_8" transform="matrix(1, 0, 0, 1, 205.1, 241.45)" opacity="1">
<linearGradient
id="LinearGradID_2" gradientUnits="userSpaceOnUse" gradientTransform="matrix(-2.72529e-009, 0.0623474, -0.0623474, -2.72529e-009, 0, 0)" spreadMethod ="pad" x1="-819.2" y1="0" x2="819.2" y2="0" >
<stop  offset="0" style="stop-color:#FFFFFF;stop-opacity:1" />
<stop  offset="0.266667" style="stop-color:#FFFFFF;stop-opacity:1" />
<stop  offset="0.721569" style="stop-color:#000000;stop-opacity:1" />
<stop  offset="1" style="stop-color:#000000;stop-opacity:1" />
</linearGradient>
<path style="fill:none;stroke-width:13;stroke-linecap:round;stroke-linejoin:round;stroke-miterlimit:3;stroke:url(#LinearGradID_2) " d="M-51.05 -60L51.1 60" />
</g>
<g id="PathID_9" transform="matrix(1, 0, 0, 1, 499.55, 239.55)" opacity="1">
<linearGradient
id="LinearGradID_3" gradientUnits="userSpaceOnUse" gradientTransform="matrix(0.109471, -0.109471, 0.109471, 0.109471, 0, 0)" spreadMethod ="pad" x1="-819.2" y1="0" x2="819.2" y2="0" >
<stop  offset="0" style="stop-color:#000000;stop-opacity:1" />
<stop  offset="0.494118" style="stop-color:#000000;stop-opacity:1" />
<stop  offset="0.494118" style="stop-color:#FFFFFF;stop-opacity:1" />
<stop  offset="1" style="stop-color:#FFFFFF;stop-opacity:1" />
</linearGradient>
<path style="fill:url(#LinearGradID_3) " d="M-126.8 -126.8L126.85 -126.8L126.85 126.85L-126.8 126.85L-126.8 -126.8" />
</g>
<g id="PathID_10" transform="matrix(1, 0, 0, 1, 499.55, 239.55)" opacity="1">
</g>
<g id="PathID_11" transform="matrix(1, 0, 0, 1, 449.85, 241.2)" opacity="1">
</g>
<g id="PathID_12" transform="matrix(1, 0, 0, 1, 449.85, 241.2)" opacity="1">
<path style="fill:none;stroke-width:13;stroke-linecap:round;stroke-linejoin:round;stroke-miterlimit:3;stroke:#FFFFFF;stroke-opacity:1" d="M0 -57.9L0 57.9" />
</g>
<g id="PathID_13" transform="matrix(1, 0, 0, 1, 551.8, 243.9)" opacity="1">
</g>
<g id="PathID_14" transform="matrix(1, 0, 0, 1, 551.8, 243.9)" opacity="1">
<path style="fill:none;stroke-width:13;stroke-linecap:round;stroke-linejoin:round;stroke-miterlimit:3;stroke:#000000;stroke-opacity:1" d="M0 -57.9L0 57.9" />
</g>
</svg>
