<?xml version="1.0" encoding="utf-8"?>
<svg version="1.1" id="Layer_1"
xmlns="http://www.w3.org/2000/svg"
xmlns:xlink="http://www.w3.org/1999/xlink"
width="636px" height="393px"
xml:space="preserve">
<filter id="filter3" x="-0.589048" y="-0.589048" width="2.3581" height="2.3581" >
<feComponentTransfer in="SourceGraphic">
	<feFuncR type="linear" slope="0"/>
	<feFuncG type="linear" slope="0"/>
	<feFuncB type="linear" slope="0"/>
</feComponentTransfer>
<feGaussianBlur stdDeviation="4 4" />
<feComponentTransfer result="1">
	<feFuncR type="linear" Ue="0" intercept="1"/>
	<feFuncG type="linear" Ue="0" intercept="0.701961"/>
	<feFuncB type="linear" Ue="0" intercept="0.701961"/>
	<feFuncA type="linear" xh="0" slope="1"/>
</feComponentTransfer>
<feComposite result="2"  in="SourceGraphic" in2="1" operator="over"/>
</filter>
<g style="filter:url(#filter3);">
<g id="PathID_1" transform="matrix(1.24387, 0, 0, 1.24387, 67.75, 72.4)" opacity="1">
<path style="fill:#FFFFFF;fill-opacity:1" d="M36.85 -37.3Q36.85 -37.05 35.8 -36.8L34.45 -36.6L34.45 0Q34.45 0.35 32.2 0.35L32 0.3L31.8 0.15Q31.75 0.25 30.8 0.25L30.55 0.1Q29.4 -1.5 27.25 -3.95L10.3 -19.3Q10.4 -18.3 10.4 -17.15L10.3 -13.5L10.25 -9.85Q10.25 -9.5 9.95 -9.5Q9.6 -9.5 9.6 -11.5L9.7 -14.25L9.8 -17Q9.8 -18.6 9.6 -19.95L8.85 -20.6L8.85 -4.5Q8.85 -3.7 9.6 -3Q10.1 -2.45 11.75 -2.2Q13.2 -1.95 13.25 -1.65L13.45 -0.2Q13.45 0.35 13.15 0.35L0.95 0.35Q0.5 0.35 0.5 -0.85Q0.5 -1.85 0.9 -1.9Q1.9 -2.05 3.9 -2.7L3.9 -32.5Q3.35 -33 2.5 -33.1L0.9 -33.3Q0.6 -33.35 0.6 -33.6L0.6 -34.6Q0.6 -34.9 0.95 -34.9Q1.35 -34.9 3.9 -34.3L3.9 -38.4Q3.9 -38.7 6.2 -38.7L6.45 -38.65L28.85 -18.35L28.85 -24.8Q28.85 -33.75 28.4 -34.35Q27.25 -35.65 24.9 -35.85L24.6 -36.1L24.25 -38.2Q24.25 -38.6 24.4 -38.6L24.6 -38.6Q30.3 -37.6 31.1 -37.6Q32.45 -37.6 33.8 -37.85Q33.8 -38.7 34.15 -38.7Q34.45 -38.7 34.45 -37.95Q37 -38.6 36.65 -38.6Q36.85 -38.6 36.85 -37.3M36.2 -37.6L36.2 -37.8L34.45 -37.35L34.45 -37.25L36.2 -37.6M33.8 -0.3L33.8 -36.35Q33.3 -36.1 32.85 -35.65Q32.45 -35.2 32.2 -31.55Q32 -28.9 32 -27.05L31.75 -27.05Q32.1 -26.8 32.1 -25.15L32.25 -19.15Q32.45 -15.15 32.45 -13.1Q32.45 -6.65 32.05 -0.55L32.3 -0.3L33.8 -0.3M9.6 -34.9L6.05 -38.05L4.6 -38.05L4.6 -34.15Q6.85 -33.55 7.8 -33.55Q8.9 -33.55 9.2 -34.15L9.6 -34.9M33.8 -37.05L33.8 -37.2Q32.45 -37 31.1 -37Q28.75 -37 24.9 -37.85L25.15 -36.5Q27.5 -36.15 28.85 -34.8Q29.6 -33.95 29.45 -17.8Q30.2 -17.2 30.2 -17.1Q30.2 -16.7 29.8 -16.7Q29.6 -16.75 29.45 -16.95L29.45 -14.25Q29.45 -13.95 29.15 -13.95Q28.85 -13.95 28.85 -17.55L10 -34.55Q9.75 -32.95 7.75 -32.95Q6.75 -32.95 4.6 -33.45L4.6 -32.8L6.1 -31L6.2 -30.8L6.2 -28.5Q7.95 -30.45 10.3 -30.45Q13.5 -30.45 17.2 -26.3Q19.05 -24.25 22.25 -19.4Q23.3 -17.7 24.1 -15.55L25.3 -11.4L26 -9.15Q26 -8.95 25.7 -8.95Q25.45 -8.95 25.3 -9.25Q25.15 -9.55 24.65 -11.45L23.5 -15.4Q22.75 -17.5 21.75 -19.05Q18.65 -23.7 16.85 -25.75Q13.25 -29.9 10.35 -29.9Q7.7 -29.9 6.2 -27.4L6.2 -10.6L6.4 -18.35Q6.75 -24.7 7.8 -24.95L7.75 -26.15L7.8 -27.75Q7.85 -28.55 8.1 -28.55Q8.25 -28.55 12.05 -23.85L27.75 -4.45L31.4 -1.1Q31.8 -7.05 31.8 -13.25Q31.8 -17.85 31.35 -27L31.35 -27.05Q31.35 -34.9 32.45 -36.05Q32.9 -36.7 33.8 -37.05M3.9 -33.25L3.9 -33.6L1.2 -34.25L1.2 -33.9Q3 -33.8 3.9 -33.25M24.75 -7.1L8.45 -27.3L8.45 -24.65Q9.6 -23.4 10.15 -20.25L24.75 -7.1M31.2 -0.45L30.2 -1.35L30.95 -0.45L31.2 -0.45M9.35 -20.95Q9.05 -22.35 8.45 -23.5L8.45 -21.65Q8.65 -21.65 9.35 -20.95M5.55 -21.6L5.55 -25.9Q5.4 -25.05 5.4 -24.1Q5.4 -23.2 5.55 -21.6M5.55 -16.2L5.4 -16.15Q5.05 -16.15 5.05 -16.5L5.1 -17.35L5.2 -18.25Q5.2 -19.25 5 -21.2Q4.8 -23.15 4.8 -24.2Q4.8 -26.2 5.55 -27.6L5.55 -30.7L4.6 -31.85L4.6 -3.1Q5.55 -4.05 5.55 -7.95L5.55 -16.2M8.2 -0.3L8.2 -4.4L8.05 -5.2L7.9 -6Q7.8 -7 7.8 -8.2L7.8 -24.25Q7.2 -23.3 6.9 -13.65Q6.55 -3.1 6.2 -1.65Q6.15 -1.4 5.9 -1.4Q5.6 -1.4 5.6 -1.75Q5.6 -2.25 5.75 -3.2L5.9 -4.55Q5.55 -2.95 4.6 -2.3L4.6 -0.3L8.2 -0.3M12.8 -0.3L12.65 -1.35Q9.65 -1.7 8.85 -2.9L8.85 -0.3L12.8 -0.3M3.9 -0.3L3.9 -1.95Q2.9 -1.55 1.25 -1.35L1.25 -0.3L3.9 -0.3" />
</g>
<g id="PathID_2" transform="matrix(1.24387, 0, 0, 1.24387, 67.75, 72.4)" opacity="1">
</g>
<g id="PathID_3" transform="matrix(1.24387, 0, 0, 1.24387, 114.9, 72.4)" opacity="1">
<path style="fill:#FFFFFF;fill-opacity:1" d="M30.2 -8.55Q30.2 -4.9 27.55 -2.3Q26.8 -1.5 24.55 -0.55Q22.3 0.35 21.25 0.35Q21.05 0.35 21 0.1Q20.4 0.35 19.9 0.35Q18.65 0.35 18.3 -1.15L11.3 -1.15Q7.5 -1.15 5.05 -3.75L4.95 -3.95Q4.95 -4.3 5.25 -4.35L5.5 -4.2Q7.9 -1.75 11.3 -1.75L18.2 -1.75L18.2 -2.35Q18.15 -2.95 18.35 -4.1Q17.75 -3.9 17 -3.9Q14.8 -3.9 13.6 -5.5Q12.45 -6.95 12.45 -9.15Q11 -9.95 9.35 -11.6Q7.35 -13.6 7.35 -14.8Q7.35 -15.7 8 -16.55L8 -31.7Q7.2 -29.2 6.65 -29.2Q6.3 -29.2 6.3 -29.55L6.45 -29.75Q6.8 -30.15 7.4 -31.8Q8 -33.45 8 -33.95L8 -36.55Q4.6 -34.05 4.6 -29.8L4.6 -8.55Q4.6 -8.15 4.2 -8.15Q3.9 -8.15 3.9 -8.55L3.9 -29.8Q3.9 -34.75 8.05 -37.35Q8.15 -37.9 8.65 -38.95Q9.2 -40 9.6 -40Q9.9 -40 9.9 -39.65L9.85 -39.45Q9.1 -38.7 8.8 -37.75L9.2 -37.9Q10.1 -40.15 11.3 -40.15Q11.6 -40.15 13.75 -38.7L19.8 -38.7Q19.55 -39.45 19.55 -39.8Q19.55 -40.15 19.85 -40.15Q23.35 -40.15 26.75 -36.75Q30.2 -33.4 30.2 -29.8L30.2 -8.55M24.5 -38.1Q22.6 -39.45 20.3 -39.55L20.55 -38.7Q22.95 -38.7 24.5 -38.1M20.35 -36.45Q20.35 -36.95 20 -38.05L14.65 -38.05Q18.3 -35.65 19.6 -35.65Q20.35 -35.65 20.35 -36.45M22.4 -27.3Q22.4 -28.25 21.65 -30.35L21.7 -28.6L21.7 -28.45Q21.7 -27.6 22.25 -26.3Q22.4 -26.8 22.4 -27.3M12.6 -38.7Q12.15 -39.05 11.25 -39.55Q10.6 -39.5 10 -38.25Q11.3 -38.7 12.6 -38.7M18.35 -33.55Q17.75 -33.75 17 -33.75Q15.4 -33.75 14.25 -32.6Q13.1 -31.45 13.1 -29.75Q15.75 -33.55 18.35 -33.55M21.85 -25.5L21.65 -26.1L21.65 -25.15L21.85 -25.5M8.9 -37.1L8.7 -36.95L8.7 -36.7L8.7 -36.35L8.9 -37.1M28.05 -15.8L28.05 -31.35Q28.05 -38.05 20.75 -38.05Q20.95 -37.2 20.95 -36.6Q20.95 -35.05 19.65 -35.05Q17.95 -35.05 13.55 -38.05L12.8 -38.05Q11.2 -38.05 9.7 -37.45Q8.7 -34.7 8.7 -33.9L8.7 -17.2Q9.75 -18.15 12.2 -19.35Q11 -21.8 11 -24.2Q11 -26.45 12.45 -28.8L12.45 -29.8Q12.45 -31.7 13.8 -33.05Q15.2 -34.45 17 -34.45Q18.75 -34.45 20.55 -32.8Q21.6 -31.8 22.05 -30.85Q22.25 -30.45 22.8 -28.55Q23 -27.9 23 -27.25Q23 -26.35 22.55 -25.4L24.15 -21.55Q25.05 -19.05 25.25 -17.5Q25.75 -17.75 26.2 -17.75Q27.4 -17.75 28.05 -15.8M21 -24.4L21 -27.75L20.45 -29.8Q19.9 -31.85 19.85 -32.55Q19.1 -32.95 18.35 -32.95Q15.8 -32.95 13.1 -28.65L13.1 -19.8L17.3 -21.75Q19.7 -23.05 21 -24.4M24.1 -19Q24.1 -19.1 23.95 -19.15Q23.6 -21.25 22.15 -24.75L21.65 -24.15L21.65 -13.8L22.1 -13.85L23.05 -15.4Q23.5 -19.4 23.8 -19.4Q24 -19.4 23.95 -19.15L24.1 -18.85L23.85 -16.25Q24.25 -16.75 24.65 -17.1Q24.6 -17.75 24.1 -18.85L24.1 -19M29.5 -8.55L29.5 -29.8Q29.5 -32.4 28.1 -34.5Q28.65 -33 28.65 -31.35L28.65 -10Q28.65 -9.65 28.35 -9.65Q28.05 -9.65 28.05 -10.35Q28.05 -17.1 26.15 -17.1Q25.8 -17.1 25.25 -16.75Q25.3 -14.45 23.55 -13.6Q22.6 -4.65 21.6 -4.65Q21.05 -4.65 20.2 -5.2Q19.7 -4.7 19 -4.4Q18.8 -3.25 18.8 -2.4L18.8 -1.75L19.85 -1.75Q22.95 -1.75 25.65 -4.2Q25.75 -4.35 25.85 -4.35Q26.15 -4.35 26.15 -4L26.05 -3.75Q24.05 -1.7 22.5 -0.7L24.95 -1.4Q26.3 -1.9 27.1 -2.75Q29.5 -5.15 29.5 -8.55M24.65 -16.3L23.7 -15.25L23.65 -14.4Q24.55 -15.05 24.65 -16.3M22.95 -14.15L22.9 -14.05L22.95 -14.05L22.95 -14.15M12.45 -20.3L12.45 -27.55Q11.6 -26.15 11.6 -24.2Q11.6 -22.3 12.45 -20.3M21 -13.75L21 -23.55Q19.6 -22.25 17.25 -21.05L13.1 -19.05Q14.4 -16.8 16.4 -15.4Q18.6 -13.75 21 -13.75M22.85 -13.4L22.4 -13.3L21.65 -11.8Q21.65 -8.2 21.7 -8.65Q21.55 -6.8 20.65 -5.65L21.6 -5.25Q22.05 -5.8 22.85 -13.4M21 -11.9L21 -13.15Q16.35 -13.15 13.1 -17.9L13.1 -11.25Q13.95 -10.85 15.85 -9.35Q16.75 -9.75 17.5 -11.15Q18.1 -12.35 18.25 -12.35Q18.6 -12.35 18.6 -12.1Q18.6 -11.5 17.75 -10.35Q16.9 -9.25 16.35 -8.95L19 -6.85Q19.8 -9.4 21 -11.9M21 -8.55L21 -10.45Q20.1 -8.4 19.55 -6.45L20.1 -6Q21 -7.1 21 -8.55M12.45 -11.4L12.45 -18.75Q9.75 -17.45 8.7 -16.3L8.7 -15.35Q8.7 -13.75 9.8 -12.6Q10.9 -11.45 12.45 -11.4M19.7 -5.55L19.35 -5.8L19.2 -5.2L19.7 -5.55M15.1 -9.15L13.1 -10.55L13.1 -9.55Q14.05 -9.1 14.7 -9.15L15.1 -9.15M18.8 -6.15L15.7 -8.65Q15.25 -8.45 14.75 -8.45Q13.95 -8.45 13.1 -8.85L13.1 -8.55Q13.1 -6.9 14.25 -5.75Q15.45 -4.6 17 -4.6Q17.8 -4.6 18.5 -4.85L18.8 -6.15M8.35 -13.65Q8 -14.4 8 -15.4Q7.9 -15.15 7.9 -14.8Q7.9 -14.25 8.35 -13.65M12.45 -9.85L12.45 -10.8Q11.55 -10.8 10.75 -11.15Q11.65 -10.35 12.45 -9.85M22.75 -1.65Q21.4 -1.15 18.95 -1.15Q19.25 -0.3 20 -0.3Q20.95 -0.3 22.75 -1.65" />
</g>
<g id="PathID_4" transform="matrix(1.24387, 0, 0, 1.24387, 114.9, 72.4)" opacity="1">
</g>
<g id="PathID_5" transform="matrix(1.24387, 0, 0, 1.24387, 153.5, 72.4)" opacity="1">
<path style="fill:#FFFFFF;fill-opacity:1" d="M30.2 0Q30.2 0.35 29.8 0.35L21.35 0.35Q21 0.35 21 0L21 -12.65Q21 -13.15 20.6 -14.05Q20.25 -14.95 19.95 -15.3Q18.65 -16.65 16.8 -16.65L13.1 -16.65L13.1 0Q13.1 0.35 12.8 0.35L4.2 0.35Q3.9 0.35 3.9 0L3.9 -38.4Q3.9 -38.7 4.15 -38.7Q3.95 -38.7 7.45 -37.55Q7.45 -38.45 7.7 -38.45Q8.1 -38.45 8.35 -37.3Q11.35 -36.45 13.4 -36.45L14.35 -36.5Q15.15 -38.4 15.35 -38.4Q15.65 -38.4 15.65 -38.1Q15.65 -37.95 15.1 -36.6Q15.85 -36.7 18.45 -37.7Q21.05 -38.7 21.35 -38.7Q25.05 -38.7 27.55 -36.05L27.65 -35.85Q27.65 -35.55 27.3 -35.5L27.1 -35.6Q24.7 -38.05 21.4 -38.05Q21.2 -38.05 18.45 -37Q15.7 -36 14.8 -35.85Q13.85 -33.45 13.2 -32.05Q11.85 -29.3 10.9 -28.65L11.2 -21.6L11.9 -21.65L11.8 -21.85Q11.8 -22.1 12.5 -22.2Q13.05 -22.25 13.95 -22.2L15.05 -22.15L15.05 -33.7Q15.05 -34.05 15.35 -34.05L19.65 -34.05Q20.8 -34.05 21.85 -33.45L21.85 -35.5Q20.35 -36.5 20.35 -36.75Q20.35 -37.05 20.65 -37.05L21.85 -36.2Q21.85 -36.75 22.15 -36.75Q22.45 -36.75 22.45 -35.8L25.75 -33.65Q27.35 -32.4 28.15 -30.6Q29.25 -28 29 -25.6Q29.5 -27.85 29.8 -27.85Q30.2 -27.85 30.2 -27.55L30.15 -27.4Q29.45 -24.4 28.85 -23.1Q27.8 -20.9 25.85 -19.95Q26.6 -19.95 26.55 -19.6Q28.1 -19.25 29.15 -17.95Q30.2 -16.7 30.2 -15.1L30.2 0M28.45 -26.5Q28.45 -29.6 26.75 -31.65Q25.65 -33.1 22.45 -35.1L22.45 -33.05Q24.2 -31.7 24.2 -29.45L24.2 -25.2Q24.2 -23 22.45 -21.65L22.45 -19.95L23.95 -19.95Q24.2 -19.95 25.05 -20.25L26.65 -21.55Q27.45 -22.25 27.8 -23Q28.45 -24.85 28.45 -26.5M23.6 -25.2L23.6 -29.45Q23.6 -31.1 22.45 -32.25L22.45 -22.45Q23.6 -23.65 23.6 -25.2M21.85 -21.95L21.85 -32.75Q20.8 -33.4 19.65 -33.4L15.65 -33.4L15.65 -22.15L16.8 -22.15Q18.55 -22.15 19.8 -23.35L20.05 -26.1Q20.3 -28.25 20.65 -28.25Q21 -28.25 20.95 -27.9L20.45 -23.3L20.25 -21.8L19.95 -21.55L15.65 -21.2L15.65 -21Q17.55 -18.5 18.35 -18.5Q18.9 -18.5 19.1 -19.55L19.35 -20.95Q19.35 -21.1 20.4 -21.4Q21.45 -21.7 21.85 -21.95M14.1 -35.8L13.4 -35.75Q11.6 -35.7 8.55 -36.6L9.1 -32.5Q9.6 -29.1 10.2 -29.05L10 -33.6Q10 -33.9 10.3 -33.9Q10.75 -33.9 10.8 -32L10.85 -29.45Q12.1 -30.85 14.1 -35.8M19.7 -22.45L19.05 -22.1L19.65 -22.15L19.7 -22.45M29.5 -0.3L29.5 -15.1Q29.5 -16.7 28.35 -17.85Q27.2 -19.05 25.6 -19.05L24.85 -19.05Q24.65 -18.65 24.65 -18.2Q24.65 -16.75 26.85 -15.55Q29.1 -14.4 29.1 -14.05Q29.1 -13.75 28.75 -13.75L27.35 -14.6L25.2 -15.85Q24.15 -16.65 24.05 -17.9L24.05 -18.25Q24 -18.6 24.15 -19.05L22.45 -19.05L22.45 -0.3L29.5 -0.3M21.85 -12.15L21.85 -19.05Q21 -19.05 21 -19.4Q21 -19.6 21.2 -19.7Q21.25 -19.95 21.85 -19.95L21.85 -21.15Q20.9 -20.7 19.9 -20.6Q19.65 -17.9 18.4 -17.9Q17.65 -17.9 16.3 -19.2Q15 -20.55 15.05 -21.2L10.9 -20.9Q10.55 -20.9 10.55 -21.2L10.25 -28.45Q9.15 -28.45 8.6 -31.45L8.05 -35.6L8.05 -0.3L12.45 -0.3L12.45 -16.65Q11.8 -16.65 11.8 -16.95Q11.8 -17.3 12.55 -17.3L12.8 -17.4L17 -17.4Q18.9 -17.4 20.25 -16Q21.65 -14.65 21.65 -12.8L21.85 -12.15M21.85 -0.3L21.85 -11.9L21.65 -11.75L21.65 -0.3L21.85 -0.3M7.45 -0.3L7.45 -36.95L4.6 -37.9L4.6 -0.3L7.45 -0.3" />
</g>
<g id="PathID_6" transform="matrix(1.24387, 0, 0, 1.24387, 153.5, 72.4)" opacity="1">
</g>
<g id="PathID_7" transform="matrix(1.24387, 0, 0, 1.24387, 192.1, 72.4)" opacity="1">
<path style="fill:#FFFFFF;fill-opacity:1" d="M27.15 -38.6Q27.15 -38.3 26.85 -38.3Q26.55 -38.3 26.55 -38.6L25.5 -38.8Q24.85 -38.8 23.95 -38.65Q25.9 -38.65 25.9 -38.35L25.9 -34.15Q25.9 -33.8 25.55 -33.8L18.95 -33.8Q18.6 -33.8 18.6 -34.1Q18.6 -34.45 18.9 -34.45L25.25 -34.45L25.25 -38.1L19.2 -38.1Q18.1 -38.1 14.45 -37.45L9.35 -36.7Q8.9 -36.25 8.5 -35.4L9.35 -35.4Q9.65 -35.4 9.65 -35.1Q9.65 -34.85 8.15 -34.8L8 -34.45Q8.85 -34.45 8.85 -34.15L8.85 -6.7Q9.45 -4.95 10.1 -3.85Q9.8 -5.05 9.8 -6.3Q9.8 -9.95 9.35 -17.2Q8.9 -24.45 8.9 -28.1Q8.9 -31 9.55 -31Q10.6 -31 14.25 -21.15L14 -25.5Q13.85 -28.25 13.85 -29.95Q13.85 -30.25 14.15 -30.25Q14.45 -30.25 14.45 -29.95Q14.65 -28.7 14.7 -23.85Q14.75 -19.85 15.3 -18L15.3 -24.75L15.3 -34.45Q15.3 -34.8 15.6 -34.8Q15.95 -34.8 15.95 -34.45L15.95 -24.75Q15.95 -16.4 16.05 -15.9L17.1 -11.9Q17.75 -9.45 17.75 -7.85Q17.75 -3.1 17.05 -0.3Q17.4 -0.3 17.4 0Q17.4 0.35 16.9 0.35Q16.3 1.9 15.6 1.9Q14.5 1.9 12.8 0.3L11.25 0.3Q9.9 0.4 9.2 0.3Q8.2 0.25 8.2 -0.05L8.2 -6.65Q5.5 -13.95 5.5 -22.1Q5.5 -29.1 7.15 -33.8L2.05 -33.8Q1.3 -33.8 0.6 -33L0 -32.2Q-0.3 -32.2 -0.3 -32.5Q-0.3 -33.2 0.55 -33.75Q-0.3 -33.75 -0.3 -34.1L-0.3 -38.35Q-0.3 -38.7 0 -38.7L19.2 -38.7L20.9 -38.95Q23.8 -39.4 25.35 -39.4Q27.15 -39.4 27.15 -38.6M15.1 -38.1L0.3 -38.1L0.3 -34.45L1.95 -34.45Q1.35 -34.45 3.7 -34.9Q5.5 -35.25 7.75 -35.4Q8.1 -36.1 8.5 -36.65Q6.4 -36.45 4.75 -36.45Q4.45 -36.45 4.45 -36.75Q4.45 -37.05 4.75 -37.05Q6.6 -37.05 9.1 -37.3Q9.8 -37.95 10.65 -37.95Q11.2 -37.95 10.9 -37.5Q12.7 -37.7 15.1 -38.1M7.5 -34.8L4.55 -34.45L7.35 -34.45L7.5 -34.8M17.15 -7.8Q17.15 -9.6 16.1 -13.35Q16.3 -9.7 16.3 -7.75Q16.3 -0.5 15.45 -0.5Q14.95 -0.5 14.65 -8.75L14.4 -16Q14.45 -17.1 14.3 -19.1Q14.1 -20.2 12.2 -24.75Q10.3 -29.5 9.7 -30.3Q9.55 -29.6 9.55 -28.5Q9.55 -24.8 10 -17.4Q10.45 -10 10.45 -6.3Q10.45 -4.25 11.4 -2.5Q12.15 -2.15 12.15 -2.05Q12.15 -1.8 11.75 -1.75Q12.3 -0.95 13 -0.3L16.4 -0.3Q17.15 -3.15 17.15 -7.8M8.2 -8.6L8.2 -33.8L7.8 -33.8Q6.15 -29.15 6.15 -22.1Q6.15 -15.4 8.2 -8.6M15.65 -7.75Q15.65 -15.05 15 -17.1Q15.1 -12.5 15.55 -3.4L15.65 -7.75M16.2 0.3L13.75 0.3Q15 1.3 15.6 1.3Q15.9 1.3 16.2 0.3M12.1 -0.3Q11.4 -1.1 10.85 -2.05Q9.85 -2.8 8.9 -5.05L8.85 -0.3L12.1 -0.3" />
</g>
<g id="PathID_8" transform="matrix(1.24387, 0, 0, 1.24387, 192.1, 72.4)" opacity="1">
</g>
<g id="PathID_9" transform="matrix(1.24387, 0, 0, 1.24387, 225.55, 72.4)" opacity="1">
<path style="fill:#FFFFFF;fill-opacity:1" d="M35.65 -1.1Q35.65 -0.8 34.5 -0.7Q33.65 -0.65 32.1 -0.7L30.2 -0.8Q30.15 0.35 29.8 0.35L21.35 0.35Q21 0.35 21 -0.8Q20.8 -0.9 20.8 -1.1Q20.8 -1.25 21 -1.35L21 -16.7L19.9 -16.7L19.9 -0.5Q19.9 -0.2 19.6 -0.2Q19.3 -0.2 19.3 -0.5L19.3 -16.7L13.1 -16.7L13.1 -2.55L14.15 -2.4Q15 -2.3 15 -2Q15 -1.7 14.6 -1.7L13.1 -1.85L13.15 -1.15Q13.2 -0.5 13.1 -0.05Q13.05 0.35 12.8 0.35L3.85 0.35Q3.5 0.35 3.5 -0.85L3.6 -2.4L2.85 -2.15L2.9 -1.45L2.85 -0.55Q2.8 -0.2 2.55 -0.2Q2.25 -0.2 2.25 -1.95Q0.95 -1.7 0.45 -1.7Q0.15 -1.7 0.15 -2Q0.15 -2.3 1 -2.45L2.25 -2.6L2.25 -33.45L1 -33.6Q0.15 -33.75 0.15 -34Q0.15 -34.35 0.45 -34.35Q1.1 -34.35 2.25 -34.05L2.25 -37Q1.7 -36.95 1.7 -37.3Q1.7 -37.65 2.25 -37.6Q2.25 -39.2 2.55 -39.2Q2.85 -39.2 2.85 -37.6L3.9 -37.55L3.9 -37.7Q3.2 -37.75 3.2 -38.05Q3.2 -38.25 3.5 -38.3Q3.75 -38.4 4.2 -38.3L4.8 -38.25L6.75 -38.35Q8.05 -38.5 8.75 -38.5Q10.95 -38.5 12.5 -37.5Q14.3 -36.35 14.65 -34.35Q15 -34.35 15 -34Q15 -33.75 14.7 -33.7L14.7 -33.35Q14.75 -31.9 14.05 -29.15Q13.4 -26.45 13.4 -25.05L13.75 -22.5L21.05 -22.65L21.2 -31.55Q19.6 -36 19.6 -37.05Q19.6 -38.15 20.5 -38.15Q20.95 -38.15 21.7 -37.8L30.65 -37.6Q30.95 -37.6 30.95 -37.3L30.85 -32.05Q31.4 -33.95 35.05 -34.3Q35.05 -35.25 35.35 -35.25Q35.65 -35.25 35.65 -34Q35.65 -33.65 34.25 -33.5Q32.5 -33.3 31.9 -32.75Q31.2 -32.1 31.2 -29.55L31.15 -14.45Q31.15 -13.55 31.35 -11.6Q31.6 -9.7 31.6 -8.75Q31.6 -6.55 31.2 -5.5Q31.35 -3.75 31.9 -3.25Q32.5 -2.75 34.25 -2.55Q35.65 -2.35 35.65 -2L35.65 -1.1M21.25 -37.3Q20.75 -37.55 20.5 -37.55Q20.2 -37.55 20.2 -37.1Q20.2 -36.05 21.2 -33.3L21.25 -37.3M30.3 -37L22.75 -37.15Q25 -35.55 27.3 -29.9Q29.05 -25.6 30 -21.4L30.3 -37M14.05 -34.3Q13.85 -35.4 13.05 -36.2L13.1 -34.15L14.05 -34.3M11.4 -37.4Q10.25 -37.85 8.65 -37.85L6.75 -37.75L11.4 -37.4M14.15 -33.35L14.15 -33.65L13.1 -33.5L13.15 -28.3L13.8 -30.8Q14.15 -32.35 14.15 -33.35M23.05 -24.1Q23.05 -26.15 21.8 -29.8L21.75 -22.35Q21.7 -22.1 21.45 -22.05L13.85 -21.9Q14.25 -19.05 16.75 -19.05Q18.45 -19.05 21.65 -20.95Q23.05 -21.85 23.05 -24.1M30.6 -5.6Q30.75 -9.55 30.5 -15.1L30.3 -5.35Q30.5 -5.35 30.6 -5.6M3.9 -36.95L2.85 -37L2.85 -33.95Q3.45 -33.75 3.9 -33.5L3.9 -36.95M35.05 -1.4L35.05 -1.7Q32.95 -1.9 32.15 -2.4Q30.9 -3.05 30.65 -4.8L30.3 -4.75L30.2 -1.4L35.05 -1.4M29.95 -18.5Q29.95 -20.05 28.6 -24.35Q27.35 -28.45 26.5 -30.15L24.7 -33.9Q23.55 -36 21.9 -37L21.85 -31.7Q23.7 -26.6 23.7 -24.15Q23.7 -21.5 21.95 -20.45Q18.55 -18.4 16.7 -18.4Q13.7 -18.4 13.2 -21.9L12.95 -21.85Q12.6 -21.85 12.6 -22.2L12.45 -33.35Q12.2 -33.3 11 -32.65Q10.7 -32.65 10.7 -33L10.75 -33.2Q11.3 -33.7 12.45 -34L12.4 -36.7L10.25 -36.85Q9.1 -35.5 8.7 -35.5Q8.35 -35.5 8.35 -35.8L8.45 -36.05L9.35 -36.85L4.55 -36.95L4.2 -3.45Q4.5 -3.35 4.5 -3.1L4.4 -2.9L4.2 -2.75L4.15 -0.3L12.45 -0.3L12.45 -2Q10.7 -2.45 10.7 -3.05Q10.7 -3.35 11 -3.35L11.2 -3.25Q11.55 -2.9 12.45 -2.65L12.45 -17Q12.45 -17.4 12.8 -17.4L19.3 -17.4Q19.3 -17.85 19.6 -17.85Q19.9 -17.85 19.9 -17.4Q21.65 -17.4 21.65 -17L21.65 -1.4L29.55 -1.4L29.6 -5.05Q27.5 -6.8 25.95 -13.8L25.95 -7.25Q25.95 -6.95 25.65 -6.95Q25.3 -6.95 25.3 -7.25L25.3 -16.5Q25.3 -16.8 25.05 -17.45Q24.8 -18.1 24.8 -18.4Q24.8 -18.8 25.1 -18.8Q25.35 -18.8 25.75 -17.5Q25.9 -17.45 25.95 -16.55L26.35 -15Q27.05 -11.8 27.5 -10.2Q28.45 -7.45 29.65 -5.9L29.95 -18.5M29.55 -0.8L21.65 -0.8L21.65 -0.3L29.55 -0.3L29.55 -0.8M3.85 -32.75Q3.5 -33.1 2.85 -33.3L2.85 -2.8Q3.3 -2.9 3.6 -3.1L3.85 -32.75" />
</g>
<g id="PathID_10" transform="matrix(1.24387, 0, 0, 1.24387, 225.55, 72.4)" opacity="1">
</g>
<g id="PathID_11" transform="matrix(1.24387, 0, 0, 1.24387, 270.55, 72.4)" opacity="1">
<path style="fill:#FFFFFF;fill-opacity:1" d="M26.05 -34.55Q26.05 -33.75 25.6 -33.75Q25.25 -33.75 25.25 -34.75L25.1 -34.8Q25.05 -34.55 24.8 -34.55L13.1 -33.8L13 -21.65L21.35 -21.65Q21.65 -21.65 21.65 -21.35L21.65 -17Q21.65 -16.7 21.35 -16.7L13.1 -16.7L13.1 -15Q14.45 -12.35 16.7 -5.3L24.8 -5.3Q25.1 -5.3 25.1 -4.6Q25.9 -4.6 25.9 -4.2L25.9 0Q25.9 0.35 25.6 0.35L4.2 0.35Q3.9 0.35 3.9 0.1Q3.9 -0.1 4.1 -0.45Q3.2 -0.45 3.2 -0.75Q3.2 -4.4 3.75 -8.95Q4.1 -11.6 6.45 -18.5Q8.45 -24.6 8.45 -27.85Q8.45 -28.45 8.2 -29.45L7.95 -30.55L8 -31.25L8.1 -32.05Q8.1 -33.3 7.4 -34.4L5.75 -36.3L5.75 -32.85Q5.7 -30.4 5.3 -30.4Q5 -30.4 5 -30.7L5.15 -36.85Q3.2 -38.25 3.2 -39.1Q3.2 -39.45 3.5 -39.45L24.8 -39.45Q25.1 -39.45 25.1 -38.7Q25.9 -38.7 25.9 -38.4L25.9 -34.95Q26.05 -34.8 26.05 -34.55M25.25 -35.4L25.25 -38.05L25.1 -38.05L25.1 -35.4L25.25 -35.4M24.5 -38.7L24.5 -38.85L17.9 -38.85L18.2 -38.7L24.5 -38.7M24.5 -35.95L24.5 -38.05L19.65 -38.05L24.5 -35.95M23.7 -35.65L18.05 -38.05L13.45 -38.05L6.25 -36.8Q7.15 -36.1 7.6 -35.3Q8.25 -34.2 8.55 -33.9Q9.3 -34.95 11.7 -34.65Q11.7 -35.15 12 -35.15L17.3 -35.15Q18.1 -35.15 20.35 -35.45Q22.4 -35.7 23.7 -35.65M14.05 -38.85L3.9 -38.85L4 -38.65Q4.55 -38.9 7.2 -38.8L11.8 -38.6Q13.45 -38.6 14.05 -38.85M13.45 -34.55L12.3 -34.55L12.8 -34.45L13.45 -34.55M9.9 -38.05L5 -38.05L5.7 -37.3L9.9 -38.05M12.45 -33.85L12.3 -33.85L12.3 -26.15L12.4 -25.9L12.45 -33.85M11.7 -28.2L11.7 -33.95L10.5 -34.05Q9.25 -34.05 8.9 -33.4Q10.75 -30.75 11.7 -28.2M11.7 -24.55L11.7 -26.1Q11.7 -27 10.5 -29.35Q9.6 -31.25 8.75 -32.5Q8.85 -31 11.7 -24.55M15.85 -20.95L13 -20.95L13 -20.85L15.85 -20.95M21 -17.4L21 -20.95L16.45 -20.95L16.6 -20.9Q17.5 -20 19 -18.1L19.65 -18.15Q20.15 -18.2 20.45 -18.15Q20.85 -18.05 20.85 -17.8Q20.85 -17.5 20.55 -17.5L12.35 -17.5L12.2 -16.7L12.45 -16.2Q12.45 -17.4 12.8 -17.4L21 -17.4M18.05 -18.25L16.25 -20.4L12.8 -20.2L12.5 -18.25L18.05 -18.25M24.5 -4.6L24.5 -4.7L16.9 -4.7L17.2 -3.9L17.6 -3.5L24.5 -4.6M15.7 -5.3L14.65 -9.55Q14 -12 13.1 -13.6L13.1 -5.3L15.7 -5.3M11.55 -16.6L11.35 -17L8.95 -16.6Q7.4 -16.35 7.4 -15.4Q7.4 -13.95 9.35 -10.25Q10.85 -13.7 11.55 -16.6M12.2 -21.8L12 -21.75Q11.7 -21.75 11.7 -23L9.05 -29Q9.15 -28.4 9.15 -27.65Q9.15 -24.1 7.15 -18.2Q4.8 -11.4 4.4 -8.9L3.85 -1.05L4.55 -1.05Q7.3 -5.75 9.05 -9.55Q6.8 -13.7 6.8 -15.4Q6.8 -16.75 8.35 -17.15L11.05 -17.6L10.9 -18Q10.9 -18.25 11.9 -18.25Q12.2 -20.1 12.2 -21.8M12.45 -5.3L12.45 -14.8L11.95 -15.8Q11.2 -12.95 9.7 -9.6L12.2 -5.3L12.45 -5.3M24.5 -1.05L24.5 -3.7Q20.75 -3.05 18.2 -2.9Q19.5 -1.6 19.5 -1.45Q19.5 -1.2 19.3 -1.2Q18.75 -1.2 16.75 -1.75Q14.75 -2.35 14.75 -2.65Q14.75 -2.95 15.1 -2.95Q13.45 -3.2 12.55 -4L12.45 -4.2L12.45 -4.7L12 -4.7L11.75 -4.85Q10.35 -7.15 9.4 -8.9Q7.75 -5.35 5.25 -1.05L24.5 -1.05M16.75 -3.45Q16.1 -4.15 15.9 -4.7L13.1 -4.7L13.1 -4.4Q14.15 -3.45 16.5 -3.45L16.75 -3.45M25.25 -0.3L25.25 -3.85L25.1 -3.85L25.1 -0.75Q25.1 -0.45 24.8 -0.45L4.9 -0.45L4.8 -0.3L25.25 -0.3M15.25 -2.95L18.05 -2.15L17.4 -2.85L16.9 -2.85L15.95 -2.9L15.25 -2.95" />
</g>
<g id="PathID_12" transform="matrix(1.24387, 0, 0, 1.24387, 270.55, 72.4)" opacity="1">
</g>
<g id="PathID_13" transform="matrix(1.24387, 0, 0, 1.24387, 301.4, 72.4)" opacity="1">
<path style="fill:#FFFFFF;fill-opacity:1" d="M30.2 0Q30.2 0.35 29.8 0.35L21.35 0.35Q21 0.35 21 0L21 -12.65Q21 -13.15 20.6 -14.05Q20.25 -14.95 19.95 -15.3Q18.65 -16.65 16.8 -16.65L13.1 -16.65L13.1 0Q13.1 0.35 12.8 0.35L4.2 0.35Q3.9 0.35 3.9 0L3.9 -38.4Q3.9 -38.7 4.15 -38.7Q3.95 -38.7 7.45 -37.55Q7.45 -38.45 7.7 -38.45Q8.1 -38.45 8.35 -37.3Q11.35 -36.45 13.4 -36.45L14.35 -36.5Q15.15 -38.4 15.35 -38.4Q15.65 -38.4 15.65 -38.1Q15.65 -37.95 15.1 -36.6Q15.85 -36.7 18.45 -37.7Q21.05 -38.7 21.35 -38.7Q25.05 -38.7 27.55 -36.05L27.65 -35.85Q27.65 -35.55 27.3 -35.5L27.1 -35.6Q24.7 -38.05 21.4 -38.05Q21.2 -38.05 18.45 -37Q15.7 -36 14.8 -35.85Q13.85 -33.45 13.2 -32.05Q11.85 -29.3 10.9 -28.65L11.2 -21.6L11.9 -21.65L11.8 -21.85Q11.8 -22.1 12.5 -22.2Q13.05 -22.25 13.95 -22.2L15.05 -22.15L15.05 -33.7Q15.05 -34.05 15.35 -34.05L19.65 -34.05Q20.8 -34.05 21.85 -33.45L21.85 -35.5Q20.35 -36.5 20.35 -36.75Q20.35 -37.05 20.65 -37.05L21.85 -36.2Q21.85 -36.75 22.15 -36.75Q22.45 -36.75 22.45 -35.8L25.75 -33.65Q27.35 -32.4 28.15 -30.6Q29.25 -28 29 -25.6Q29.5 -27.85 29.8 -27.85Q30.2 -27.85 30.2 -27.55L30.15 -27.4Q29.45 -24.4 28.85 -23.1Q27.8 -20.9 25.85 -19.95Q26.6 -19.95 26.55 -19.6Q28.1 -19.25 29.15 -17.95Q30.2 -16.7 30.2 -15.1L30.2 0M28.45 -26.5Q28.45 -29.6 26.75 -31.65Q25.65 -33.1 22.45 -35.1L22.45 -33.05Q24.2 -31.7 24.2 -29.45L24.2 -25.2Q24.2 -23 22.45 -21.65L22.45 -19.95L23.95 -19.95Q24.2 -19.95 25.05 -20.25L26.65 -21.55Q27.45 -22.25 27.8 -23Q28.45 -24.85 28.45 -26.5M23.6 -25.2L23.6 -29.45Q23.6 -31.1 22.45 -32.25L22.45 -22.45Q23.6 -23.65 23.6 -25.2M21.85 -21.95L21.85 -32.75Q20.8 -33.4 19.65 -33.4L15.65 -33.4L15.65 -22.15L16.8 -22.15Q18.55 -22.15 19.8 -23.35L20.05 -26.1Q20.3 -28.25 20.65 -28.25Q21 -28.25 20.95 -27.9L20.45 -23.3L20.25 -21.8L19.95 -21.55L15.65 -21.2L15.65 -21Q17.55 -18.5 18.35 -18.5Q18.9 -18.5 19.1 -19.55L19.35 -20.95Q19.35 -21.1 20.4 -21.4Q21.45 -21.7 21.85 -21.95M14.1 -35.8L13.4 -35.75Q11.6 -35.7 8.55 -36.6L9.1 -32.5Q9.6 -29.1 10.2 -29.05L10 -33.6Q10 -33.9 10.3 -33.9Q10.75 -33.9 10.8 -32L10.85 -29.45Q12.1 -30.85 14.1 -35.8M19.7 -22.45L19.05 -22.1L19.65 -22.15L19.7 -22.45M29.5 -0.3L29.5 -15.1Q29.5 -16.7 28.35 -17.85Q27.2 -19.05 25.6 -19.05L24.85 -19.05Q24.65 -18.65 24.65 -18.2Q24.65 -16.75 26.85 -15.55Q29.1 -14.4 29.1 -14.05Q29.1 -13.75 28.75 -13.75L27.35 -14.6L25.2 -15.85Q24.15 -16.65 24.05 -17.9L24.05 -18.25Q24 -18.6 24.15 -19.05L22.45 -19.05L22.45 -0.3L29.5 -0.3M21.85 -12.15L21.85 -19.05Q21 -19.05 21 -19.4Q21 -19.6 21.2 -19.7Q21.25 -19.95 21.85 -19.95L21.85 -21.15Q20.9 -20.7 19.9 -20.6Q19.65 -17.9 18.4 -17.9Q17.65 -17.9 16.3 -19.2Q15 -20.55 15.05 -21.2L10.9 -20.9Q10.55 -20.9 10.55 -21.2L10.25 -28.45Q9.15 -28.45 8.6 -31.45L8.05 -35.6L8.05 -0.3L12.45 -0.3L12.45 -16.65Q11.8 -16.65 11.8 -16.95Q11.8 -17.3 12.55 -17.3L12.8 -17.4L17 -17.4Q18.9 -17.4 20.25 -16Q21.65 -14.65 21.65 -12.8L21.85 -12.15M21.85 -0.3L21.85 -11.9L21.65 -11.75L21.65 -0.3L21.85 -0.3M7.45 -0.3L7.45 -36.95L4.6 -37.9L4.6 -0.3L7.45 -0.3" />
</g>
<g id="PathID_14" transform="matrix(1.24387, 0, 0, 1.24387, 301.4, 72.4)" opacity="1">
</g>
<g id="PathID_15" transform="matrix(1.24387, 0, 0, 1.24387, 361.7, 72.4)" opacity="1">
<path style="fill:#FFFFFF;fill-opacity:1" d="M31.3 -25.4Q31.3 -19.55 27.65 -17.8Q26.25 -17.1 20 -16.5Q15 -16.05 13.1 -13.7L13.1 0Q13.1 0.35 12.8 0.35L4.2 0.35Q3.9 0.35 3.9 0L3.9 -12.8Q3.9 -12.45 3.5 -14.65Q3.1 -16.9 3.1 -18.95Q3.1 -21.1 3.55 -23.35L3.9 -25.05L3.9 -34.6Q2.85 -34.4 2.3 -34.4Q0.8 -34.4 0.8 -35.6Q0.8 -36.85 1.7 -37.8Q2.65 -38.8 3.8 -38.8L4.3 -38.75L4.75 -38.7L14.85 -38.7L16.3 -38.9Q17.45 -39.15 18 -39.15Q17.6 -39.15 21.35 -38.7Q25.1 -38.25 27 -36.6Q28.95 -35 30.05 -31.4L30.9 -28.5Q31.3 -27.05 31.3 -25.4M20.3 -32.1L20.1 -32.35L20 -31.8L20.3 -32.1M20.85 -30.85Q20.8 -31.2 20.6 -31.55L20.3 -31.3L20.85 -30.85M28.05 -24.45L21.65 -29.45Q21.65 -25 21.55 -24.5L21.9 -24.5L24.3 -24.45L26.7 -24.4L28.05 -24.45M21 -25.6L21 -30L19.9 -30.85Q19.75 -29.35 19.7 -24.4L20.85 -24.5Q21 -25 21 -25.6M23.75 -33.95Q23.15 -34.45 19.95 -34.8Q17.4 -35.05 15.8 -35.05L11.8 -35.05L11.2 -23.6L12.45 -23.35L12.45 -34.15Q12.45 -34.5 12.8 -34.5Q13 -34.5 13.1 -34.25L17.45 -23.15Q17.9 -23.6 19 -24.25Q19.05 -27.4 19.2 -28.8Q19.35 -32.5 19.65 -32.95Q19.8 -33.2 20 -33.2Q20.3 -33.2 20.85 -32.4Q22.1 -32.95 23.75 -33.95M30.7 -25.4Q30.7 -27.35 30.2 -29.25Q30.2 -25.05 30 -23.95Q29.5 -21 27.55 -19.35Q27.15 -19 26.65 -19Q25.5 -19 23.5 -20.4Q20.85 -22.25 20.4 -22.45L19.65 -21.8Q19.5 -17.95 19.05 -17.95Q18.8 -17.95 17.6 -21L17.45 -21L13.1 -16.9L13.1 -14.65Q15.15 -16.75 20.1 -17.2Q25.9 -17.65 27.35 -18.35Q30.7 -20 30.7 -25.4M20.6 -23.85L19.65 -23.8L19.65 -23.25L20.2 -23.15L20.6 -23.85M16.85 -22.9L13.1 -32.45L13.1 -23.25L16.25 -22.8L16.85 -22.9M19.75 -22.65L19.65 -22.65L19.65 -22.55L19.75 -22.65M13.2 -38.05L7.1 -38.05L8.05 -37.85Q8.85 -37.7 8.85 -37.5Q8.85 -37.2 8.45 -37.2Q7.85 -37.2 6.3 -37.6Q4.8 -38.05 4.6 -38.05L4.6 -35.35Q5.8 -35.6 6.6 -35.6Q7.3 -35.6 7.3 -35.3Q7.3 -35 6.65 -35Q6 -35 4.6 -34.7L4.6 -27.85Q6.45 -35.05 13.2 -38.05M19 -23.6Q18.35 -22.9 17.65 -22.55L17.8 -22.2Q18.15 -22.6 19 -23.2L19 -23.6M18.95 -22.45L18.3 -21.85L18.95 -22.1L18.95 -22.45M3.9 -35.25L3.9 -38.15L3.75 -38.15Q2.9 -38.15 2.15 -37.35Q1.4 -36.55 1.4 -35.65Q1.4 -35 2.25 -35Q2.7 -35 3.9 -35.25M18.95 -21.45Q18.6 -21.2 18.2 -21.1L18.85 -19.45L18.95 -21.45M17.35 -21.75L17.1 -22.35Q16.65 -22.2 16.2 -22.2L13.1 -22.65L13.1 -21.65L17.2 -21.65L17.35 -21.75M29.5 -25.6L29.5 -29.8Q29.5 -30.9 29.4 -31.2Q28.75 -33.15 26.75 -35Q24.75 -36.85 22.7 -37.6Q21.55 -38.05 21.25 -38.05L15 -38.05Q14.25 -38.05 12.3 -36.9Q10.75 -35.95 9.8 -35.25Q6.25 -32.5 5 -26.85L4.6 -25L4.6 -12.9L4.7 -12.35Q5.55 -9.5 6.5 -6.7Q7.7 -2.65 7.7 -1.2Q7.7 -0.85 7.35 -0.85Q7.15 -0.85 7.1 -1.1L6.4 -4.35L4.6 -10.55L4.6 -0.3L12.45 -0.3L12.45 -12.7Q11.5 -10.9 11.5 -7.95L11.55 -6L11.65 -4Q11.65 -1.9 11.25 -1.9Q11.05 -1.9 11 -2.4Q10.95 -2.7 11 -3.25L11 -3.95L10.95 -5.95L10.9 -7.9Q10.9 -11.65 12.45 -13.9L12.45 -17L12.55 -17.3L16.5 -20.95L12.8 -20.95Q12.45 -20.95 12.45 -22.75Q10.5 -23 10.55 -23.3L11.2 -35.35Q11.25 -35.65 11.55 -35.65L15.95 -35.65Q17.95 -35.65 20.55 -35.35Q24.35 -34.9 24.35 -34Q24.35 -33.45 23.05 -32.75L21.15 -31.85Q21.55 -31.1 21.65 -30.3Q29 -24.5 29 -24.3Q29 -23.8 26.1 -23.8L22.35 -23.9L21.35 -23.85L20.8 -22.9Q21.2 -22.75 23.75 -21Q25.8 -19.6 26.6 -19.6Q26.9 -19.6 27.1 -19.8Q29.5 -21.95 29.5 -25.6M3.9 -15.75L3.9 -22Q3.65 -20.4 3.65 -18.85Q3.65 -17.4 3.9 -15.75" />
</g>
<g id="PathID_16" transform="matrix(1.24387, 0, 0, 1.24387, 361.7, 72.4)" opacity="1">
</g>
<g id="PathID_17" transform="matrix(1.24387, 0, 0, 1.24387, 399.5, 72.4)" opacity="1">
<path style="fill:#FFFFFF;fill-opacity:1" d="M26.05 -34.55Q26.05 -33.75 25.6 -33.75Q25.25 -33.75 25.25 -34.75L25.1 -34.8Q25.05 -34.55 24.8 -34.55L13.1 -33.8L13 -21.65L21.35 -21.65Q21.65 -21.65 21.65 -21.35L21.65 -17Q21.65 -16.7 21.35 -16.7L13.1 -16.7L13.1 -15Q14.45 -12.35 16.7 -5.3L24.8 -5.3Q25.1 -5.3 25.1 -4.6Q25.9 -4.6 25.9 -4.2L25.9 0Q25.9 0.35 25.6 0.35L4.2 0.35Q3.9 0.35 3.9 0.1Q3.9 -0.1 4.1 -0.45Q3.2 -0.45 3.2 -0.75Q3.2 -4.4 3.75 -8.95Q4.1 -11.6 6.45 -18.5Q8.45 -24.6 8.45 -27.85Q8.45 -28.45 8.2 -29.45L7.95 -30.55L8 -31.25L8.1 -32.05Q8.1 -33.3 7.4 -34.4L5.75 -36.3L5.75 -32.85Q5.7 -30.4 5.3 -30.4Q5 -30.4 5 -30.7L5.15 -36.85Q3.2 -38.25 3.2 -39.1Q3.2 -39.45 3.5 -39.45L24.8 -39.45Q25.1 -39.45 25.1 -38.7Q25.9 -38.7 25.9 -38.4L25.9 -34.95Q26.05 -34.8 26.05 -34.55M25.25 -35.4L25.25 -38.05L25.1 -38.05L25.1 -35.4L25.25 -35.4M24.5 -38.7L24.5 -38.85L17.9 -38.85L18.2 -38.7L24.5 -38.7M24.5 -35.95L24.5 -38.05L19.65 -38.05L24.5 -35.95M23.7 -35.65L18.05 -38.05L13.45 -38.05L6.25 -36.8Q7.15 -36.1 7.6 -35.3Q8.25 -34.2 8.55 -33.9Q9.3 -34.95 11.7 -34.65Q11.7 -35.15 12 -35.15L17.3 -35.15Q18.1 -35.15 20.35 -35.45Q22.4 -35.7 23.7 -35.65M14.05 -38.85L3.9 -38.85L4 -38.65Q4.55 -38.9 7.2 -38.8L11.8 -38.6Q13.45 -38.6 14.05 -38.85M13.45 -34.55L12.3 -34.55L12.8 -34.45L13.45 -34.55M9.9 -38.05L5 -38.05L5.7 -37.3L9.9 -38.05M12.45 -33.85L12.3 -33.85L12.3 -26.15L12.4 -25.9L12.45 -33.85M11.7 -28.2L11.7 -33.95L10.5 -34.05Q9.25 -34.05 8.9 -33.4Q10.75 -30.75 11.7 -28.2M11.7 -24.55L11.7 -26.1Q11.7 -27 10.5 -29.35Q9.6 -31.25 8.75 -32.5Q8.85 -31 11.7 -24.55M15.85 -20.95L13 -20.95L13 -20.85L15.85 -20.95M21 -17.4L21 -20.95L16.45 -20.95L16.6 -20.9Q17.5 -20 19 -18.1L19.65 -18.15Q20.15 -18.2 20.45 -18.15Q20.85 -18.05 20.85 -17.8Q20.85 -17.5 20.55 -17.5L12.35 -17.5L12.2 -16.7L12.45 -16.2Q12.45 -17.4 12.8 -17.4L21 -17.4M18.05 -18.25L16.25 -20.4L12.8 -20.2L12.5 -18.25L18.05 -18.25M24.5 -4.6L24.5 -4.7L16.9 -4.7L17.2 -3.9L17.6 -3.5L24.5 -4.6M15.7 -5.3L14.65 -9.55Q14 -12 13.1 -13.6L13.1 -5.3L15.7 -5.3M11.55 -16.6L11.35 -17L8.95 -16.6Q7.4 -16.35 7.4 -15.4Q7.4 -13.95 9.35 -10.25Q10.85 -13.7 11.55 -16.6M12.2 -21.8L12 -21.75Q11.7 -21.75 11.7 -23L9.05 -29Q9.15 -28.4 9.15 -27.65Q9.15 -24.1 7.15 -18.2Q4.8 -11.4 4.4 -8.9L3.85 -1.05L4.55 -1.05Q7.3 -5.75 9.05 -9.55Q6.8 -13.7 6.8 -15.4Q6.8 -16.75 8.35 -17.15L11.05 -17.6L10.9 -18Q10.9 -18.25 11.9 -18.25Q12.2 -20.1 12.2 -21.8M12.45 -5.3L12.45 -14.8L11.95 -15.8Q11.2 -12.95 9.7 -9.6L12.2 -5.3L12.45 -5.3M24.5 -1.05L24.5 -3.7Q20.75 -3.05 18.2 -2.9Q19.5 -1.6 19.5 -1.45Q19.5 -1.2 19.3 -1.2Q18.75 -1.2 16.75 -1.75Q14.75 -2.35 14.75 -2.65Q14.75 -2.95 15.1 -2.95Q13.45 -3.2 12.55 -4L12.45 -4.2L12.45 -4.7L12 -4.7L11.75 -4.85Q10.35 -7.15 9.4 -8.9Q7.75 -5.35 5.25 -1.05L24.5 -1.05M16.75 -3.45Q16.1 -4.15 15.9 -4.7L13.1 -4.7L13.1 -4.4Q14.15 -3.45 16.5 -3.45L16.75 -3.45M25.25 -0.3L25.25 -3.85L25.1 -3.85L25.1 -0.75Q25.1 -0.45 24.8 -0.45L4.9 -0.45L4.8 -0.3L25.25 -0.3M15.25 -2.95L18.05 -2.15L17.4 -2.85L16.9 -2.85L15.95 -2.9L15.25 -2.95" />
</g>
<g id="PathID_18" transform="matrix(1.24387, 0, 0, 1.24387, 399.5, 72.4)" opacity="1">
</g>
<g id="PathID_19" transform="matrix(1.24387, 0, 0, 1.24387, 430.35, 72.4)" opacity="1">
<path style="fill:#FFFFFF;fill-opacity:1" d="M30.2 -8.55Q30.2 -4.9 27.55 -2.3Q26.8 -1.5 24.55 -0.55Q22.3 0.35 21.25 0.35Q21.05 0.35 21 0.1Q20.4 0.35 19.9 0.35Q18.65 0.35 18.3 -1.15L11.3 -1.15Q7.5 -1.15 5.05 -3.75L4.95 -3.95Q4.95 -4.3 5.25 -4.35L5.5 -4.2Q7.9 -1.75 11.3 -1.75L18.2 -1.75L18.2 -2.35Q18.15 -2.95 18.35 -4.1Q17.75 -3.9 17 -3.9Q14.8 -3.9 13.6 -5.5Q12.45 -6.95 12.45 -9.15Q11 -9.95 9.35 -11.6Q7.35 -13.6 7.35 -14.8Q7.35 -15.7 8 -16.55L8 -31.7Q7.2 -29.2 6.65 -29.2Q6.3 -29.2 6.3 -29.55L6.45 -29.75Q6.8 -30.15 7.4 -31.8Q8 -33.45 8 -33.95L8 -36.55Q4.6 -34.05 4.6 -29.8L4.6 -8.55Q4.6 -8.15 4.2 -8.15Q3.9 -8.15 3.9 -8.55L3.9 -29.8Q3.9 -34.75 8.05 -37.35Q8.15 -37.9 8.65 -38.95Q9.2 -40 9.6 -40Q9.9 -40 9.9 -39.65L9.85 -39.45Q9.1 -38.7 8.8 -37.75L9.2 -37.9Q10.1 -40.15 11.3 -40.15Q11.6 -40.15 13.75 -38.7L19.8 -38.7Q19.55 -39.45 19.55 -39.8Q19.55 -40.15 19.85 -40.15Q23.35 -40.15 26.75 -36.75Q30.2 -33.4 30.2 -29.8L30.2 -8.55M24.5 -38.1Q22.6 -39.45 20.3 -39.55L20.55 -38.7Q22.95 -38.7 24.5 -38.1M20.35 -36.45Q20.35 -36.95 20 -38.05L14.65 -38.05Q18.3 -35.65 19.6 -35.65Q20.35 -35.65 20.35 -36.45M22.4 -27.3Q22.4 -28.25 21.65 -30.35L21.7 -28.6L21.7 -28.45Q21.7 -27.6 22.25 -26.3Q22.4 -26.8 22.4 -27.3M12.6 -38.7Q12.15 -39.05 11.25 -39.55Q10.6 -39.5 10 -38.25Q11.3 -38.7 12.6 -38.7M18.35 -33.55Q17.75 -33.75 17 -33.75Q15.4 -33.75 14.25 -32.6Q13.1 -31.45 13.1 -29.75Q15.75 -33.55 18.35 -33.55M21.85 -25.5L21.65 -26.1L21.65 -25.15L21.85 -25.5M8.9 -37.1L8.7 -36.95L8.7 -36.7L8.7 -36.35L8.9 -37.1M28.05 -15.8L28.05 -31.35Q28.05 -38.05 20.75 -38.05Q20.95 -37.2 20.95 -36.6Q20.95 -35.05 19.65 -35.05Q17.95 -35.05 13.55 -38.05L12.8 -38.05Q11.2 -38.05 9.7 -37.45Q8.7 -34.7 8.7 -33.9L8.7 -17.2Q9.75 -18.15 12.2 -19.35Q11 -21.8 11 -24.2Q11 -26.45 12.45 -28.8L12.45 -29.8Q12.45 -31.7 13.8 -33.05Q15.2 -34.45 17 -34.45Q18.75 -34.45 20.55 -32.8Q21.6 -31.8 22.05 -30.85Q22.25 -30.45 22.8 -28.55Q23 -27.9 23 -27.25Q23 -26.35 22.55 -25.4L24.15 -21.55Q25.05 -19.05 25.25 -17.5Q25.75 -17.75 26.2 -17.75Q27.4 -17.75 28.05 -15.8M21 -24.4L21 -27.75L20.45 -29.8Q19.9 -31.85 19.85 -32.55Q19.1 -32.95 18.35 -32.95Q15.8 -32.95 13.1 -28.65L13.1 -19.8L17.3 -21.75Q19.7 -23.05 21 -24.4M24.1 -19Q24.1 -19.1 23.95 -19.15Q23.6 -21.25 22.15 -24.75L21.65 -24.15L21.65 -13.8L22.1 -13.85L23.05 -15.4Q23.5 -19.4 23.8 -19.4Q24 -19.4 23.95 -19.15L24.1 -18.85L23.85 -16.25Q24.25 -16.75 24.65 -17.1Q24.6 -17.75 24.1 -18.85L24.1 -19M29.5 -8.55L29.5 -29.8Q29.5 -32.4 28.1 -34.5Q28.65 -33 28.65 -31.35L28.65 -10Q28.65 -9.65 28.35 -9.65Q28.05 -9.65 28.05 -10.35Q28.05 -17.1 26.15 -17.1Q25.8 -17.1 25.25 -16.75Q25.3 -14.45 23.55 -13.6Q22.6 -4.65 21.6 -4.65Q21.05 -4.65 20.2 -5.2Q19.7 -4.7 19 -4.4Q18.8 -3.25 18.8 -2.4L18.8 -1.75L19.85 -1.75Q22.95 -1.75 25.65 -4.2Q25.75 -4.35 25.85 -4.35Q26.15 -4.35 26.15 -4L26.05 -3.75Q24.05 -1.7 22.5 -0.7L24.95 -1.4Q26.3 -1.9 27.1 -2.75Q29.5 -5.15 29.5 -8.55M24.65 -16.3L23.7 -15.25L23.65 -14.4Q24.55 -15.05 24.65 -16.3M22.95 -14.15L22.9 -14.05L22.95 -14.05L22.95 -14.15M12.45 -20.3L12.45 -27.55Q11.6 -26.15 11.6 -24.2Q11.6 -22.3 12.45 -20.3M21 -13.75L21 -23.55Q19.6 -22.25 17.25 -21.05L13.1 -19.05Q14.4 -16.8 16.4 -15.4Q18.6 -13.75 21 -13.75M22.85 -13.4L22.4 -13.3L21.65 -11.8Q21.65 -8.2 21.7 -8.65Q21.55 -6.8 20.65 -5.65L21.6 -5.25Q22.05 -5.8 22.85 -13.4M21 -11.9L21 -13.15Q16.35 -13.15 13.1 -17.9L13.1 -11.25Q13.95 -10.85 15.85 -9.35Q16.75 -9.75 17.5 -11.15Q18.1 -12.35 18.25 -12.35Q18.6 -12.35 18.6 -12.1Q18.6 -11.5 17.75 -10.35Q16.9 -9.25 16.35 -8.95L19 -6.85Q19.8 -9.4 21 -11.9M21 -8.55L21 -10.45Q20.1 -8.4 19.55 -6.45L20.1 -6Q21 -7.1 21 -8.55M12.45 -11.4L12.45 -18.75Q9.75 -17.45 8.7 -16.3L8.7 -15.35Q8.7 -13.75 9.8 -12.6Q10.9 -11.45 12.45 -11.4M19.7 -5.55L19.35 -5.8L19.2 -5.2L19.7 -5.55M15.1 -9.15L13.1 -10.55L13.1 -9.55Q14.05 -9.1 14.7 -9.15L15.1 -9.15M18.8 -6.15L15.7 -8.65Q15.25 -8.45 14.75 -8.45Q13.95 -8.45 13.1 -8.85L13.1 -8.55Q13.1 -6.9 14.25 -5.75Q15.45 -4.6 17 -4.6Q17.8 -4.6 18.5 -4.85L18.8 -6.15M8.35 -13.65Q8 -14.4 8 -15.4Q7.9 -15.15 7.9 -14.8Q7.9 -14.25 8.35 -13.65M12.45 -9.85L12.45 -10.8Q11.55 -10.8 10.75 -11.15Q11.65 -10.35 12.45 -9.85M22.75 -1.65Q21.4 -1.15 18.95 -1.15Q19.25 -0.3 20 -0.3Q20.95 -0.3 22.75 -1.65" />
</g>
<g id="PathID_20" transform="matrix(1.24387, 0, 0, 1.24387, 430.35, 72.4)" opacity="1">
</g>
<g id="PathID_21" transform="matrix(1.24387, 0, 0, 1.24387, 468.95, 72.4)" opacity="1">
<path style="fill:#FFFFFF;fill-opacity:1" d="M31.3 -25.4Q31.3 -19.55 27.65 -17.8Q26.25 -17.1 20 -16.5Q15 -16.05 13.1 -13.7L13.1 0Q13.1 0.35 12.8 0.35L4.2 0.35Q3.9 0.35 3.9 0L3.9 -12.8Q3.9 -12.45 3.5 -14.65Q3.1 -16.9 3.1 -18.95Q3.1 -21.1 3.55 -23.35L3.9 -25.05L3.9 -34.6Q2.85 -34.4 2.3 -34.4Q0.8 -34.4 0.8 -35.6Q0.8 -36.85 1.7 -37.8Q2.65 -38.8 3.8 -38.8L4.3 -38.75L4.75 -38.7L14.85 -38.7L16.3 -38.9Q17.45 -39.15 18 -39.15Q17.6 -39.15 21.35 -38.7Q25.1 -38.25 27 -36.6Q28.95 -35 30.05 -31.4L30.9 -28.5Q31.3 -27.05 31.3 -25.4M20.3 -32.1L20.1 -32.35L20 -31.8L20.3 -32.1M20.85 -30.85Q20.8 -31.2 20.6 -31.55L20.3 -31.3L20.85 -30.85M28.05 -24.45L21.65 -29.45Q21.65 -25 21.55 -24.5L21.9 -24.5L24.3 -24.45L26.7 -24.4L28.05 -24.45M21 -25.6L21 -30L19.9 -30.85Q19.75 -29.35 19.7 -24.4L20.85 -24.5Q21 -25 21 -25.6M23.75 -33.95Q23.15 -34.45 19.95 -34.8Q17.4 -35.05 15.8 -35.05L11.8 -35.05L11.2 -23.6L12.45 -23.35L12.45 -34.15Q12.45 -34.5 12.8 -34.5Q13 -34.5 13.1 -34.25L17.45 -23.15Q17.9 -23.6 19 -24.25Q19.05 -27.4 19.2 -28.8Q19.35 -32.5 19.65 -32.95Q19.8 -33.2 20 -33.2Q20.3 -33.2 20.85 -32.4Q22.1 -32.95 23.75 -33.95M30.7 -25.4Q30.7 -27.35 30.2 -29.25Q30.2 -25.05 30 -23.95Q29.5 -21 27.55 -19.35Q27.15 -19 26.65 -19Q25.5 -19 23.5 -20.4Q20.85 -22.25 20.4 -22.45L19.65 -21.8Q19.5 -17.95 19.05 -17.95Q18.8 -17.95 17.6 -21L17.45 -21L13.1 -16.9L13.1 -14.65Q15.15 -16.75 20.1 -17.2Q25.9 -17.65 27.35 -18.35Q30.7 -20 30.7 -25.4M20.6 -23.85L19.65 -23.8L19.65 -23.25L20.2 -23.15L20.6 -23.85M16.85 -22.9L13.1 -32.45L13.1 -23.25L16.25 -22.8L16.85 -22.9M19.75 -22.65L19.65 -22.65L19.65 -22.55L19.75 -22.65M13.2 -38.05L7.1 -38.05L8.05 -37.85Q8.85 -37.7 8.85 -37.5Q8.85 -37.2 8.45 -37.2Q7.85 -37.2 6.3 -37.6Q4.8 -38.05 4.6 -38.05L4.6 -35.35Q5.8 -35.6 6.6 -35.6Q7.3 -35.6 7.3 -35.3Q7.3 -35 6.65 -35Q6 -35 4.6 -34.7L4.6 -27.85Q6.45 -35.05 13.2 -38.05M19 -23.6Q18.35 -22.9 17.65 -22.55L17.8 -22.2Q18.15 -22.6 19 -23.2L19 -23.6M18.95 -22.45L18.3 -21.85L18.95 -22.1L18.95 -22.45M3.9 -35.25L3.9 -38.15L3.75 -38.15Q2.9 -38.15 2.15 -37.35Q1.4 -36.55 1.4 -35.65Q1.4 -35 2.25 -35Q2.7 -35 3.9 -35.25M18.95 -21.45Q18.6 -21.2 18.2 -21.1L18.85 -19.45L18.95 -21.45M17.35 -21.75L17.1 -22.35Q16.65 -22.2 16.2 -22.2L13.1 -22.65L13.1 -21.65L17.2 -21.65L17.35 -21.75M29.5 -25.6L29.5 -29.8Q29.5 -30.9 29.4 -31.2Q28.75 -33.15 26.75 -35Q24.75 -36.85 22.7 -37.6Q21.55 -38.05 21.25 -38.05L15 -38.05Q14.25 -38.05 12.3 -36.9Q10.75 -35.95 9.8 -35.25Q6.25 -32.5 5 -26.85L4.6 -25L4.6 -12.9L4.7 -12.35Q5.55 -9.5 6.5 -6.7Q7.7 -2.65 7.7 -1.2Q7.7 -0.85 7.35 -0.85Q7.15 -0.85 7.1 -1.1L6.4 -4.35L4.6 -10.55L4.6 -0.3L12.45 -0.3L12.45 -12.7Q11.5 -10.9 11.5 -7.95L11.55 -6L11.65 -4Q11.65 -1.9 11.25 -1.9Q11.05 -1.9 11 -2.4Q10.95 -2.7 11 -3.25L11 -3.95L10.95 -5.95L10.9 -7.9Q10.9 -11.65 12.45 -13.9L12.45 -17L12.55 -17.3L16.5 -20.95L12.8 -20.95Q12.45 -20.95 12.45 -22.75Q10.5 -23 10.55 -23.3L11.2 -35.35Q11.25 -35.65 11.55 -35.65L15.95 -35.65Q17.95 -35.65 20.55 -35.35Q24.35 -34.9 24.35 -34Q24.35 -33.45 23.05 -32.75L21.15 -31.85Q21.55 -31.1 21.65 -30.3Q29 -24.5 29 -24.3Q29 -23.8 26.1 -23.8L22.35 -23.9L21.35 -23.85L20.8 -22.9Q21.2 -22.75 23.75 -21Q25.8 -19.6 26.6 -19.6Q26.9 -19.6 27.1 -19.8Q29.5 -21.95 29.5 -25.6M3.9 -15.75L3.9 -22Q3.65 -20.4 3.65 -18.85Q3.65 -17.4 3.9 -15.75" />
</g>
<g id="PathID_22" transform="matrix(1.24387, 0, 0, 1.24387, 468.95, 72.4)" opacity="1">
</g>
<g id="PathID_23" transform="matrix(1.24387, 0, 0, 1.24387, 506.75, 72.4)" opacity="1">
<path style="fill:#FFFFFF;fill-opacity:1" d="M28.4 0Q28.4 0.35 28.1 0.35L0.55 0.35Q0.25 0.35 0.25 -0.9Q0.25 -1.15 1.9 -1.45Q3.55 -1.8 3.9 -2.05Q3.85 -4.35 3.1 -13Q2.25 -14.5 0.8 -16.25L0.75 -16.45Q0.75 -16.75 1.05 -16.75L1.3 -16.65Q2.2 -15.65 3 -14.35Q2.8 -16.55 2.8 -18.35Q2.8 -22.7 3.85 -26.85Q4.15 -28 4.45 -31.6L4.2 -31.55L4 -31.65Q3.45 -32.2 1.7 -32.4Q0.25 -32.6 0.25 -32.9L0.25 -33.85Q0.25 -34.15 1.25 -34.25Q1.95 -34.3 3.25 -34.25L4.8 -34.2Q5.55 -37.3 8.45 -37.3Q9.05 -37.3 10.55 -36.9Q12.05 -36.5 12.05 -36.2Q12.05 -35.9 11.7 -35.9Q11.2 -35.9 10.1 -36.25Q9.05 -36.65 8.4 -36.65Q6.1 -36.65 5.4 -34.2L10.5 -34.2Q11.5 -34.9 12.45 -35.3L12.4 -36.45Q12.35 -37.4 12.4 -37.9Q12.5 -38.7 12.8 -38.7Q13.05 -38.7 13.15 -37.95Q13.2 -37.45 13.15 -36.6L13.1 -35.5Q14.05 -35.8 15.1 -35.8Q18.25 -35.8 18.25 -33.45Q18.25 -31.85 16.15 -28L13.1 -22.55L13.1 -4.6L20.45 -4.6Q18.45 -5.5 18.45 -6.75Q18.45 -7.75 18.9 -7.75Q19.3 -7.75 19.3 -7.45L19.15 -7.1L19.05 -6.75Q19.05 -5.65 21.8 -4.75L22.7 -4.8Q23.5 -4.8 23.7 -4.6L27.8 -4.6Q28.15 -4.6 28.15 -4.35Q28.15 -4.2 26.1 -0.3L26.85 -0.35Q27.5 -0.4 27.95 -0.3Q28.4 -0.25 28.4 0M14.7 -33.2L14.7 -33.55L13.1 -33.55L13.1 -33Q13.75 -33.15 14.7 -33.2M12.45 -34.2L12.45 -34.65L11.6 -34.2L12.45 -34.2M17.65 -33.55Q17.65 -35.15 15.05 -35.15Q14 -35.15 13.1 -34.85L13.1 -34.2L14.05 -34.25L14.7 -34.3Q15.35 -34.3 15.35 -32.9Q15.35 -32.6 14.35 -32.45L13.1 -32.35L13.1 -23.9L15.85 -28.7Q17.65 -32.15 17.65 -33.55M12.45 -22.7L12.45 -32.25Q10.55 -31.7 10.55 -28.65L10.55 -18.35Q11.2 -20.25 12.45 -22.7M4.65 -33.55L0.85 -33.55L0.85 -33.2Q3.7 -32.95 4.5 -32.1L4.65 -33.55M12.45 -32.9L12.45 -33.55L10.7 -33.55L8 -31.2Q5.9 -29.45 5.4 -29.45Q5.15 -29.45 5.15 -29.75Q5.15 -29.95 5.3 -30.05Q6.45 -30.85 9.7 -33.55L5.25 -33.55Q5.15 -31.25 4.5 -26.7Q3.45 -22.6 3.45 -18.35Q3.45 -16.15 3.7 -13.15L6.4 -7.95Q8.15 -4.85 9.95 -3.6L9.95 -5.45Q9.05 -6.7 9.05 -8.45Q9.05 -9.6 9.5 -11.8Q9.95 -14.05 9.95 -15.2L9.95 -28.65Q9.95 -32.25 12.45 -32.9M24.3 -3.3L23.15 -3.65Q21.85 -3 18.95 -2.4Q22.6 -2.6 24.3 -3.3M12.45 -4.45L12.45 -21.25Q10.55 -17.4 10.55 -15.2L10.55 -5.7Q11.4 -4.8 12.45 -4.45M27.25 -3.95L24.35 -3.95Q25.15 -3.65 25.15 -3.3Q25.15 -1.65 14.45 -1.65Q10.7 -1.65 10.15 -2.75Q8.1 -3.9 6.45 -6.7L3.85 -11.6Q4.55 -4.9 4.55 -1.9L4.5 -1.75L4.4 -1.65Q3.6 -0.95 0.85 -0.65L0.85 -0.3L25.35 -0.3L27.25 -3.95M22.2 -3.95Q20.9 -3.95 18.3 -3.7Q15.75 -3.45 14.45 -3.45Q12.1 -3.45 10.55 -4.85L10.55 -4.05Q10.55 -3.5 10.7 -3.2Q12.3 -2.4 14.2 -2.4Q18.05 -2.4 22.2 -3.95M9.95 -11.2Q9.6 -9.45 9.6 -8.45Q9.6 -7.45 9.95 -6.65L9.95 -11.2" />
</g>
<g id="PathID_24" transform="matrix(1.24387, 0, 0, 1.24387, 506.75, 72.4)" opacity="1">
</g>
<g id="PathID_25" transform="matrix(1.24387, 0, 0, 1.24387, 540.2, 72.4)" opacity="1">
<path style="fill:#FFFFFF;fill-opacity:1" d="M26.05 -34.55Q26.05 -33.75 25.6 -33.75Q25.25 -33.75 25.25 -34.75L25.1 -34.8Q25.05 -34.55 24.8 -34.55L13.1 -33.8L13 -21.65L21.35 -21.65Q21.65 -21.65 21.65 -21.35L21.65 -17Q21.65 -16.7 21.35 -16.7L13.1 -16.7L13.1 -15Q14.45 -12.35 16.7 -5.3L24.8 -5.3Q25.1 -5.3 25.1 -4.6Q25.9 -4.6 25.9 -4.2L25.9 0Q25.9 0.35 25.6 0.35L4.2 0.35Q3.9 0.35 3.9 0.1Q3.9 -0.1 4.1 -0.45Q3.2 -0.45 3.2 -0.75Q3.2 -4.4 3.75 -8.95Q4.1 -11.6 6.45 -18.5Q8.45 -24.6 8.45 -27.85Q8.45 -28.45 8.2 -29.45L7.95 -30.55L8 -31.25L8.1 -32.05Q8.1 -33.3 7.4 -34.4L5.75 -36.3L5.75 -32.85Q5.7 -30.4 5.3 -30.4Q5 -30.4 5 -30.7L5.15 -36.85Q3.2 -38.25 3.2 -39.1Q3.2 -39.45 3.5 -39.45L24.8 -39.45Q25.1 -39.45 25.1 -38.7Q25.9 -38.7 25.9 -38.4L25.9 -34.95Q26.05 -34.8 26.05 -34.55M25.25 -35.4L25.25 -38.05L25.1 -38.05L25.1 -35.4L25.25 -35.4M24.5 -38.7L24.5 -38.85L17.9 -38.85L18.2 -38.7L24.5 -38.7M24.5 -35.95L24.5 -38.05L19.65 -38.05L24.5 -35.95M23.7 -35.65L18.05 -38.05L13.45 -38.05L6.25 -36.8Q7.15 -36.1 7.6 -35.3Q8.25 -34.2 8.55 -33.9Q9.3 -34.95 11.7 -34.65Q11.7 -35.15 12 -35.15L17.3 -35.15Q18.1 -35.15 20.35 -35.45Q22.4 -35.7 23.7 -35.65M14.05 -38.85L3.9 -38.85L4 -38.65Q4.55 -38.9 7.2 -38.8L11.8 -38.6Q13.45 -38.6 14.05 -38.85M13.45 -34.55L12.3 -34.55L12.8 -34.45L13.45 -34.55M9.9 -38.05L5 -38.05L5.7 -37.3L9.9 -38.05M12.45 -33.85L12.3 -33.85L12.3 -26.15L12.4 -25.9L12.45 -33.85M11.7 -28.2L11.7 -33.95L10.5 -34.05Q9.25 -34.05 8.9 -33.4Q10.75 -30.75 11.7 -28.2M11.7 -24.55L11.7 -26.1Q11.7 -27 10.5 -29.35Q9.6 -31.25 8.75 -32.5Q8.85 -31 11.7 -24.55M15.85 -20.95L13 -20.95L13 -20.85L15.85 -20.95M21 -17.4L21 -20.95L16.45 -20.95L16.6 -20.9Q17.5 -20 19 -18.1L19.65 -18.15Q20.15 -18.2 20.45 -18.15Q20.85 -18.05 20.85 -17.8Q20.85 -17.5 20.55 -17.5L12.35 -17.5L12.2 -16.7L12.45 -16.2Q12.45 -17.4 12.8 -17.4L21 -17.4M18.05 -18.25L16.25 -20.4L12.8 -20.2L12.5 -18.25L18.05 -18.25M24.5 -4.6L24.5 -4.7L16.9 -4.7L17.2 -3.9L17.6 -3.5L24.5 -4.6M15.7 -5.3L14.65 -9.55Q14 -12 13.1 -13.6L13.1 -5.3L15.7 -5.3M11.55 -16.6L11.35 -17L8.95 -16.6Q7.4 -16.35 7.4 -15.4Q7.4 -13.95 9.35 -10.25Q10.85 -13.7 11.55 -16.6M12.2 -21.8L12 -21.75Q11.7 -21.75 11.7 -23L9.05 -29Q9.15 -28.4 9.15 -27.65Q9.15 -24.1 7.15 -18.2Q4.8 -11.4 4.4 -8.9L3.85 -1.05L4.55 -1.05Q7.3 -5.75 9.05 -9.55Q6.8 -13.7 6.8 -15.4Q6.8 -16.75 8.35 -17.15L11.05 -17.6L10.9 -18Q10.9 -18.25 11.9 -18.25Q12.2 -20.1 12.2 -21.8M12.45 -5.3L12.45 -14.8L11.95 -15.8Q11.2 -12.95 9.7 -9.6L12.2 -5.3L12.45 -5.3M24.5 -1.05L24.5 -3.7Q20.75 -3.05 18.2 -2.9Q19.5 -1.6 19.5 -1.45Q19.5 -1.2 19.3 -1.2Q18.75 -1.2 16.75 -1.75Q14.75 -2.35 14.75 -2.65Q14.75 -2.95 15.1 -2.95Q13.45 -3.2 12.55 -4L12.45 -4.2L12.45 -4.7L12 -4.7L11.75 -4.85Q10.35 -7.15 9.4 -8.9Q7.75 -5.35 5.25 -1.05L24.5 -1.05M16.75 -3.45Q16.1 -4.15 15.9 -4.7L13.1 -4.7L13.1 -4.4Q14.15 -3.45 16.5 -3.45L16.75 -3.45M25.25 -0.3L25.25 -3.85L25.1 -3.85L25.1 -0.75Q25.1 -0.45 24.8 -0.45L4.9 -0.45L4.8 -0.3L25.25 -0.3M15.25 -2.95L18.05 -2.15L17.4 -2.85L16.9 -2.85L15.95 -2.9L15.25 -2.95" />
</g>
<g id="PathID_26" transform="matrix(1.24387, 0, 0, 1.24387, 540.2, 72.4)" opacity="1">
</g>
</g>
</svg>
